<svg width="24" height="24" fill="none" xmlns="http://www.w3.org/2000/svg"><path fill-rule="evenodd" clip-rule="evenodd" d="M0 12C0 5.373 5.373 0 12 0s12 5.373 12 12-5.373 12-12 12S0 18.627 0 12zm8.48-2.061H5.76v8.17h2.72V9.94zm.18-2.528C8.641 6.611 8.068 6 7.137 6 6.208 6 5.6 6.61 5.6 7.411c0 .785.59 1.413 1.503 1.413h.018c.948 0 1.538-.628 1.538-1.413zm9.628 6.014c0-2.51-1.342-3.678-3.131-3.678-1.444 0-2.09.793-2.452 1.35V9.938h-2.72c.036.767 0 8.171 0 8.171h2.72v-4.563c0-.245.018-.488.09-.663.197-.488.644-.993 1.395-.993.985 0 1.378.75 1.378 1.847v4.372h2.72v-4.685z" fill="#fff"/></svg>