<svg width="113" height="24" fill="none" xmlns="http://www.w3.org/2000/svg"><g clip-path="url(#clip0_6:108)"><path d="M11.95.891H5.36v.534h2.137v10.868c0 3.296-.89 4.186-2.938 4.186-1.247 0-1.515-.98-1.515-1.425 0-1.158-.089-1.96-1.158-1.96S.639 14.165.639 14.52c0 1.514.712 2.672 3.651 2.672 3.564 0 5.433-1.158 5.433-5.166V1.424h2.139V.891h.089zm.892 13.806c-.356 0-.713.092-.891.357-.268.267-.357.535-.357.891 0 .354.09.623.357.892.267.266.535.354.891.354s.623-.09.89-.354c.268-.268.357-.538.357-.892 0-.356-.089-.624-.356-.891-.268-.268-.535-.357-.892-.357h.001zm14.608 0c-.356 0-.624.092-.891.357-.266.267-.356.535-.356.891 0 .354.09.623.356.892.267.266.535.354.891.354.357 0 .712-.09.892-.354.266-.269.355-.538.355-.892 0-.356-.089-.624-.356-.891-.268-.268-.534-.357-.892-.357h.001zM22.817.891h-6.413v.534h1.87v12.472c0 .98-.089 1.246-.178 1.513-.09.358-.357.536-.802.715-.267.089-.712.177-1.336.177v.535h6.948v-.535c-.624 0-1.068-.088-1.337-.177-.444-.179-.712-.446-.8-.714a2.752 2.752 0 01-.18-.979v-4.278h1.693c4.989 0 6.414-1.959 6.414-4.632 0-2.76-.801-4.632-5.879-4.632v.001zm-.891 8.64H20.59V1.514h1.159c3.83 0 4.72 1.604 4.72 4.097 0 2.583-1.514 3.92-4.543 3.92zm27.347 5.79a3.32 3.32 0 01-.178-1.068V1.425h1.691V.891h-4.095c-.089.179-4.898 12.115-4.898 12.115l-.089.09c-.09 0-.09 0-.09-.09 0 0-5.165-12.025-5.165-12.115h-4.546v.535h1.96v13.54c0 .268-.09.536-.267.802a1.378 1.378 0 01-.714.534c-.178.091-.533.091-.891.091v.533h4.455v-.535c-.357 0-.535-.09-.801-.09-.357-.088-.535-.267-.714-.534-.178-.178-.267-.446-.267-.801l-.09-1.16V3.117h.268s5.79 13.54 5.88 13.718h.445l5.522-13.627h.178v11.046c0 .445-.089.8-.178 1.157s-.355.535-.712.713a3.493 3.493 0 01-1.157.178v.534h6.235v-.534a3.498 3.498 0 01-1.159-.178c-.266-.178-.534-.445-.623-.802zm8.462-10.154c-3.385 0-5.433 2.226-5.433 6.057 0 5.7 4.453 6.057 5.344 6.057 1.87 0 5.434-1.158 5.434-6.145 0-3.92-2.316-5.97-5.345-5.97zm-.09 11.401c-2.493 0-2.939-1.246-2.939-5.255 0-3.118.179-5.434 2.94-5.434 2.94 0 2.94 2.404 2.94 5.255 0 4.009-.713 5.434-2.94 5.434zM71.81 5.345c-1.96 0-2.672 1.158-3.208 2.405h-.178s-.266-1.782-.355-2.228h-3.92v.624h2.137v7.84c0 .8-.088 1.336-.265 1.69-.18.358-.715.625-1.516.625h-.356v.713h6.592V16.3h-.357c-.891 0-1.246-.178-1.426-.534-.177-.357-.266-.892-.266-1.693V9.8c0-1.337 1.068-2.94 2.316-2.94 1.336 0 1.246 1.96 2.761 1.158.713-.446.535-2.672-1.959-2.672zm25.92 10.332c-.713 0-.89-.355-.98-1.068V8.374c0-1.07-.178-1.693-.8-2.318-.624-.623-1.783-.891-3.475-.891-1.603 0-2.76.268-3.563.891-.712.536-1.067 1.07-1.067 1.872 0 .354.089.623.266.712.178.178.446.267.712.267.623 0 .98-.354 1.158-1.157.091-.624.267-.98.536-1.337.354-.355.891-.534 1.513-.534.802 0 1.425.177 1.692.623.268.445.446.98.446 1.691v1.872c-2.05.178-7.038.623-6.77 4.365.089 1.425 1.337 2.76 3.028 2.76 1.871 0 3.028-1.067 3.829-1.87.09.802.891 1.783 2.229 1.783 1.513 0 2.404-.713 2.494-2.584h-.356c0 .713-.446 1.159-.892 1.159v-.001zm-3.384-1.246v.089l-.089.09c-1.068.98-1.959 1.336-2.583 1.336-1.603 0-1.87-1.337-1.87-1.96 0-2.137 2.939-3.207 4.542-3.207v3.652zm16.747 1.158c-.179-.356-.446-.892-.446-1.692V8.73c0-.712-.089-1.425-.357-1.87-.267-.534-.712-.891-1.157-1.158-.535-.268-1.069-.356-1.692-.356-2.316 0-3.208 1.425-3.742 2.226h-.178l-.446-2.049h-3.563v.624h1.783v7.84c0 .623-.09 1.068-.18 1.336-.09.355-.354.623-.622.712-.179.09-.535.179-.981.179v.712h5.611v-.712c-.534-.09-.98-.179-1.157-.446-.179-.268-.356-.802-.356-1.604v-3.028c0-1.246 0-2.495.446-3.207.445-.802 1.335-1.247 2.226-1.247.892 0 1.336.268 1.605.801.266.446.354 1.782.354 2.672v3.742c0 .623.092 1.069 0 1.337-.088.354-.177.623-.446.8-.177.18-.534.18-.89.268v.713h5.436V16.3c-.626-.267-1.07-.446-1.248-.712zM85.617 4.632c-.356.09-.535.446-.713.891-.09.446-.267.712-.535.8-.267.09-.534.09-.801-.088-.623-.534-1.692-1.157-3.653-1.157-3.206 0-4.542 2.226-4.542 4.274 0 2.406.891 3.565 2.938 4.01.09 0 .09.177 0 .177-1.692.357-3.295.892-3.295 2.495 0 .98.535 1.515 1.337 1.871.8.356 1.958.535 3.384.535 1.246 0 2.137.09 2.672.09a3.83 3.83 0 011.514.534c.357.267.535.713.535 1.246 0 .802-.445 1.337-1.246 1.872-.8.445-1.783.624-3.118.624-1.069 0-2.048-.09-2.85-.624-.623-.357-.714-1.069-.623-1.604.09-.535-.09-1.068-.713-1.247a.896.896 0 00-.98.446c-.18.265-.269.622-.269 1.068 0 1.336 1.07 1.958 1.871 2.226 1.247.355 2.05.446 3.118.446 1.516 0 2.672-.268 3.564-.624.89-.446 1.426-.98 1.781-1.604.356-.623.535-1.247.535-1.87 0-.802-.18-1.515-.535-1.96-1.157-1.514-2.762-1.337-6.324-1.514-1.693 0-2.05-.356-2.05-.891 0-.801.624-1.069 3.118-1.515 2.494-.356 4.81-1.336 4.81-4.275 0-.891-.178-1.603-.446-2.137.536.088.981.088 1.426 0 .536-.178.801-.446.98-.713.179-.357.267-.713.09-.98.089-.713-.357-.98-.98-.802zm-5.611 8.374c-1.513 0-2.317-.536-2.317-3.564 0-2.137.713-3.741 2.317-3.741 1.87 0 2.404 1.425 2.404 3.652 0 3.207-.98 3.653-2.404 3.653z" fill="#ADADAD"/></g><defs><clipPath id="clip0_6:108"><path fill="#fff" transform="translate(.623)" d="M0 0h112v24H0z"/></clipPath></defs></svg>