<svg width="165" height="24" fill="none" xmlns="http://www.w3.org/2000/svg"><path fill-rule="evenodd" clip-rule="evenodd" d="M90.245 11.145s-1.595-.987-2.581-1.368c0 0-3.052-1.415-3.658-2.088 0 0-1.19-1.121-.493-2.423 0 0 .291-.852 1.548-.852 0 0 1.637.09 1.637 1.435v1.897h5.866l-.01-2.794s.45-4.577-6.91-4.778c0 0-5.788-.38-7.448 2.737 0 0-.652.696-.652 3.118v1.75s-.066 2.02.965 3.32c0 0 .583.854 2.019 1.795 0 0 2.916 1.57 4.666 2.469 0 0 1.767 1.009 1.535 2.614 0 0-.144 1.648-1.85 1.58 0 0-1.56-.07-1.56-1.686v-1.896h-6.25v2.755s-.175 5.267 7.855 5.267c0 0 7.674.156 8.032-5.406v-2.243s.272-3.408-2.711-5.203zM60.215.829l-1.963 12.308h-.46L55.916.94H46.12l-.491 22.288h5.8l.07-16.793h.457l3.075 16.79h6.102L64.17 6.441h.404l.14 16.787h5.832L69.917.83h-9.701zM25.685.922l-3.86 22.28h6.245l2.287-17.274h.513l2.285 17.275h6.244L35.54.923h-9.856zm131.039 9.916v3.286h1.601v3.528c0 1.725-1.474 1.757-1.474 1.757-1.792 0-1.724-1.64-1.724-1.64V5.567c0-1.257 1.59-1.324 1.59-1.324 1.527 0 1.537 1.5 1.537 1.5v1.855h5.88c.192-3.622-.53-4.499-.53-4.499-1.459-3.275-6.977-3.096-6.977-3.096-8.479 0-7.538 6.506-7.538 6.506v11.799c.183 6.102 8.538 5.482 8.679 5.477 3.716-.412 4.838-1.593 4.838-1.593 1.034-.767 1.3-1.83 1.3-1.83.295-.619.369-2.591.369-2.591v-6.932h-7.551zm-19.49 3.626h-.256L131.01.835h-7.139V23.23h5.811l-.348-13.626h.26l6.181 13.626h6.922V.833h-5.884l.42 13.63zm-27.545 3.186s.084 1.838-1.62 1.838c0 0-1.792.097-1.792-1.792L106.258.85h-6.373v16.713s-.654 6.326 8.273 6.326c0 0 7.758.092 7.758-6.035V.85h-6.228v16.8zm-96.154-6.505s-1.592-.987-2.58-1.367c0 0-3.05-1.414-3.655-2.088 0 0-1.19-1.123-.492-2.422 0 0 .29-.852 1.546-.852 0 0 1.638.089 1.638 1.434v1.897h5.868l-.012-2.795S16.295.375 8.938.175c0 0-.554-.036-1.367.005 0 0-4.457.24-6.05 2.684-.01.018-.023.032-.032.048 0 0-.651.695-.651 3.118v1.75S.77 9.8 1.803 11.1c0 0 .583.854 2.019 1.795 0 0 2.915 1.57 4.665 2.469 0 0 1.769 1.007 1.535 2.614 0 0-.144 1.647-1.85 1.58 0 0-1.56-.07-1.56-1.686v-1.897H.362v2.757S.185 24 8.216 24c0 0 7.672.155 8.033-5.407v-2.24c0-.003.268-3.413-2.716-5.209z" fill="#ADADAD"/></svg>