<svg width="100" height="24" fill="none" xmlns="http://www.w3.org/2000/svg"><g clip-path="url(#clip0_6:236)"><path d="M8.065 9.33c4.403-1.517 5.152-5.47 4.59-9.105 0-.131.112-.225.225-.188 4.215 2.061 8.956 6.558 8.956 13.303 0 5.171-4.01 9.743-9.837 9.743A9.368 9.368 0 016.716 5.715c.112-.075.262 0 .262.13.056.694.243 2.436 1.012 3.486h.075z" fill="url(#paint0_radial_6:236)"/><path d="M34.239 18.98l.318-.375.993 3.148-.13.13c-.75.694-1.874 1.05-3.317 1.05h-.056c-1.312 0-2.342-.375-3.054-1.068-.712-.712-1.087-1.78-1.087-3.129v-8.581h-2.53V6.689h2.53V2.51h3.897v4.178h3.092v3.466h-3.11v7.738c0 .356.093 1.499 1.18 1.499.562 0 1.086-.206 1.274-.431v.019zm2.06 3.597V6.707h3.898v15.87H36.3zM38.23.225a2.342 2.342 0 11-2.341 2.36c0-1.273 1.068-2.36 2.342-2.36zm12.441 6.09c3.373-.001 5.228 1.835 5.228 5.189v11.054H52V12.441c-.075-1.799-.937-2.623-2.773-2.623-1.649 0-2.98 1.011-3.654 1.873v10.867h-3.897V6.726h3.897v1.686c1.124-1.086 2.923-2.06 5.096-2.06v-.038zm18.193 2.041V.9h3.897v21.697h-3.897v-1.65a6.425 6.425 0 01-4.628 2.006c-4.253 0-7.1-3.335-7.1-8.3 0-4.984 2.847-8.32 7.1-8.32a6.37 6.37 0 014.628 2.024zm0 3.354a4.797 4.797 0 00-3.672-1.874c-2.417 0-4.028 1.93-4.028 4.816 0 2.866 1.61 4.796 4.028 4.796 1.405 0 2.941-.75 3.672-1.836V11.71zm13.003-5.377c4.609 0 7.813 3.56 7.813 8.618v1.068H77.894c.393 2.23 2.154 3.654 4.553 3.654 1.517 0 3.185-.656 4.14-1.611l.263-.225 1.855 2.66-.188.169a9.106 9.106 0 01-6.389 2.286c-4.871 0-8.3-3.429-8.3-8.32a8.02 8.02 0 018.057-8.3h-.02zm-3.99 6.745h8c-.225-2.38-2.193-3.466-4.01-3.466-2.736 0-3.766 2.06-3.99 3.485v-.02zm21.227-6.745h.281v3.934l-.337-.056a5.253 5.253 0 00-.993-.094c-1.255 0-2.998.881-3.654 1.818v10.623h-3.897V6.708h3.916v1.76c1.293-1.348 2.998-2.135 4.684-2.135z" fill="#ADADAD"/></g><defs><radialGradient id="paint0_radial_6:236" cx="0" cy="0" r="1" gradientUnits="userSpaceOnUse" gradientTransform="matrix(19.63 0 0 23.0634 12.02 23.093)"><stop stop-color="#FF7854"/><stop offset="1" stop-color="#FD267D"/></radialGradient><clipPath id="clip0_6:236"><path fill="#fff" transform="translate(.659)" d="M0 0h99.174v24H0z"/></clipPath></defs></svg>