<svg width="109" height="24" fill="none" xmlns="http://www.w3.org/2000/svg"><g clip-path="url(#clip0_6:116)" fill="#ADADAD"><path d="M106.616 0l-5.901 12.625-2.22-4.784h-2.4l3.65 7.825h1.94L109 0h-2.384zM81.301 23.441h4.751v-8.696c0-1.989 1.15-3.386 2.86-3.386 1.644 0 2.499 1.15 2.499 2.81v9.272h4.75V13.266c0-3.452-2.07-5.885-5.424-5.885-2.137 0-3.633.92-4.75 2.597h-.1V7.841h-4.602l.016 15.6zM71.964 7.414c-4.964 0-8.285 3.567-8.285 8.268 0 4.669 3.321 8.269 8.285 8.269 4.965 0 8.285-3.6 8.285-8.269.017-4.701-3.32-8.268-8.285-8.268zm-.032 13.019c-2.252 0-3.453-1.89-3.453-4.75 0-2.894 1.184-4.752 3.453-4.752 2.252 0 3.5 1.858 3.5 4.751.017 2.86-1.232 4.75-3.5 4.75zM50.133 23.44h13.348v-3.748h-7.561v-.099l7.232-8.104V7.825H50.134v3.764h7.315v.099l-7.315 8.17v3.583zm-6.098 0h4.783v-15.6h-4.783v15.6zm-11.096 0h4.767v-7.167c0-3.255 1.956-4.701 4.931-4.29h.099v-4.11c-.247-.099-.526-.115-.97-.115-1.857 0-3.107.855-4.175 2.68h-.099V7.84H32.94v15.6zm-8.745-2.992c-2.105 0-3.387-1.364-3.633-3.468h11.243c.033-3.354-.854-6.033-2.712-7.71-1.315-1.216-3.04-1.89-5.244-1.89-4.701 0-7.956 3.567-7.956 8.235 0 4.702 3.107 8.285 8.269 8.285 1.956 0 3.501-.526 4.783-1.397 1.365-.937 2.35-2.318 2.614-3.682h-4.57c-.444 1.02-1.397 1.627-2.794 1.627zm-.247-9.665c1.677 0 2.827 1.249 3.025 3.073h-6.378c.378-1.84 1.38-3.073 3.353-3.073zM6.392 23.44h4.997l5.425-15.6H12.03L8.99 17.868h-.067L5.883 7.842H.966l5.425 15.6zM44.036 2.285h4.783v4.241h-4.783V2.285z"/></g><defs><clipPath id="clip0_6:116"><path fill="#fff" transform="translate(.803)" d="M0 0h108.197v24H0z"/></clipPath></defs></svg>