<svg width="75" height="24" fill="none" xmlns="http://www.w3.org/2000/svg"><path d="M32.222 23.6h-6.037L29.958.414h6.037L32.222 23.6zM21.107.414l-5.755 15.948-.68-3.434-2.031-10.426S12.395.414 9.777.414H.263L.152.807s2.91.605 6.314 2.65l5.244 20.144H18L27.604.414h-6.497zM68.587 23.6h5.543L69.297.414h-4.852c-2.241 0-2.787 1.728-2.787 1.728L52.655 23.6h6.293l1.258-3.444h7.674l.707 3.444zm-6.643-8.202l3.172-8.676 1.784 8.676h-4.956zM53.127 5.99l.861-4.98S51.33 0 48.56 0c-2.995 0-10.11 1.31-10.11 7.676 0 5.99 8.35 6.064 8.35 9.21 0 3.147-7.489 2.583-9.96.599l-.898 5.206S38.637 24 42.755 24c4.12 0 10.334-2.133 10.334-7.938 0-6.028-8.425-6.59-8.425-9.21.001-2.622 5.88-2.285 8.463-.862z" fill="#ADADAD"/><path d="M14.672 12.928L12.64 2.501S12.395.414 9.777.414H.263L.152.806s4.572.948 8.959 4.499c4.193 3.393 5.56 7.623 5.56 7.623z" fill="#ADADAD"/></svg>