<svg width="101" height="24" fill="none" xmlns="http://www.w3.org/2000/svg"><g clip-path="url(#clip0_6:120)" fill="#ADADAD"><path d="M58.055 12.772c0-2.37-1.015-4.465-4.446-4.465-1.76 0-3.16.502-3.917.941l.555 1.902c.698-.438 1.812-.799 2.864-.799 1.737-.002 2.021.98 2.021 1.612v.152c-3.792-.006-6.189 1.304-6.189 3.973 0 1.63 1.217 3.159 3.345 3.159 1.297 0 2.394-.524 3.05-1.351h.063s.432 1.807 2.82 1.116c-.121-.757-.166-1.554-.166-2.523v-3.717zm-2.83 2.502c0 .192-.015.39-.072.56-.218.73-.971 1.342-1.909 1.342-.79 0-1.412-.448-1.412-1.386 0-1.436 1.585-1.83 3.394-1.821M0 5.083s2.477 10.133 2.87 11.774c.464 1.919 1.295 2.628 3.692 2.156l1.548-6.284c.392-1.557.658-2.673.91-4.26h.043c.176 1.603.429 2.703.749 4.265 0 0 .632 2.855.96 4.35.318 1.496 1.216 2.439 3.568 1.929l3.685-13.93H15.05l-1.265 6.026c-.335 1.745-.639 3.12-.876 4.72h-.043c-.213-1.582-.484-2.901-.833-4.611l-1.31-6.135H7.62L6.221 11.06c-.399 1.825-.772 3.289-1.006 4.838h-.04c-.242-1.454-.57-3.305-.917-5.062 0 0-.83-4.28-1.124-5.754M26.316 12.772c0-2.37-1.017-4.465-4.449-4.465-1.755 0-3.156.502-3.914.941l.555 1.902c.696-.438 1.809-.799 2.864-.799 1.737-.002 2.021.98 2.021 1.612v.152c-3.791-.006-6.191 1.304-6.191 3.973 0 1.63 1.222 3.159 3.34 3.159 1.31 0 2.396-.524 3.051-1.351h.067s.434 1.807 2.82 1.116c-.123-.757-.164-1.554-.164-2.523v-3.717zm-2.832 2.502c0 .192-.016.39-.07.56-.22.73-.974 1.342-1.914 1.342-.786 0-1.41-.448-1.41-1.386 0-1.436 1.586-1.83 3.394-1.821M27.86 5.083v13.925h2.83V5.083h-2.83zM66.745 5.083v10.274c0 1.418.266 2.407.839 3.013.503.531 1.326.877 2.306.877.841 0 1.665-.162 2.053-.303l-.034-2.212c-.29.068-.623.125-1.08.125-.966 0-1.285-.612-1.285-1.885v-3.933h2.466V8.378h-2.466V5.083M59.426 8.55v10.462h2.927v-5.358c0-.288.019-.538.064-.768.218-1.13 1.076-1.845 2.311-1.845.345 0 .58.038.84.078V8.376a3.098 3.098 0 00-.636-.06c-1.096 0-2.337.696-2.86 2.21h-.073V8.55M32.335 8.55v10.462h2.852v-6.14c0-.29.032-.584.134-.85.232-.622.807-1.342 1.73-1.342 1.149 0 1.691.97 1.691 2.368v5.964h2.845v-6.215c0-.27.038-.603.118-.844.228-.705.851-1.273 1.713-1.273 1.16 0 1.722.948 1.722 2.597v5.735h2.842v-6.17c0-3.24-1.648-4.526-3.52-4.526-.824 0-1.479.202-2.068.566-.498.305-.934.736-1.326 1.299h-.043c-.45-1.126-1.507-1.865-2.889-1.865-1.771 0-2.576.894-3.05 1.65h-.042V8.55M87.328 8.08c.56 0 1.03-.292 1.092-.668l.555-6.28C88.975.508 88.242 0 87.328 0c-.919 0-1.646.51-1.646 1.131l.56 6.281c.058.376.527.668 1.086.668zM83.926 10.045c.277-.49.261-1.035-.038-1.278l-5.177-3.62c-.538-.315-1.345.06-1.806.852-.46.791-.367 1.68.16 1.987l5.732 2.658c.367.137.847-.118 1.13-.604M90.73 10.04c.293.486.773.74 1.13.61l5.731-2.664c.533-.314.612-1.193.162-1.985-.46-.792-1.27-1.164-1.808-.856l-5.178 3.617c-.287.246-.308.793-.031 1.283M87.328 15.925c.56 0 1.03.292 1.092.668l.555 6.28c0 .623-.733 1.127-1.647 1.127-.919 0-1.646-.504-1.646-1.126l.56-6.281c.058-.376.527-.668 1.086-.668zM90.73 13.966c.293-.488.773-.748 1.13-.606l5.731 2.66c.533.307.612 1.194.162 1.986-.46.787-1.27 1.161-1.808.853l-5.178-3.621c-.287-.245-.308-.79-.031-1.272M83.926 13.96c.277.49.261 1.033-.038 1.278l-5.177 3.616c-.538.314-1.345-.062-1.806-.848-.46-.791-.367-1.68.16-1.987l5.732-2.66c.367-.14.847.118 1.13.601zM99.268 18.308h.072c.096 0 .136.03.147.108.02.086.032.143.052.168h.184c-.016-.018-.036-.065-.047-.173-.021-.093-.07-.146-.137-.164v-.018c.094-.02.148-.083.148-.16 0-.07-.032-.12-.064-.152a.498.498 0 00-.25-.053c-.116 0-.2.01-.268.026v.694h.163v-.276zm.005-.317l.084-.01c.098 0 .15.045.15.108 0 .072-.07.105-.161.105h-.073v-.203zm.105-.47a.709.709 0 00-.722.699.71.71 0 00.721.709.703.703 0 100-1.409zm0 .14c.309 0 .538.25.538.559 0 .31-.23.568-.538.563a.548.548 0 01-.544-.563c0-.308.234-.559.539-.559"/></g><defs><clipPath id="clip0_6:120"><path fill="#fff" d="M0 0h100.094v24H0z"/></clipPath></defs></svg>